<?xml version="1.0" encoding="UTF-8"?>
<svg id="Layer_1" xmlns="http://www.w3.org/2000/svg" version="1.1" viewBox="0 0 135.1 34.91">
  <!-- Generator: Adobe Illustrator 29.4.0, SVG Export Plug-In . SVG Version: 2.1.0 Build 152)  -->
  <defs>
    <style>
      .st0 {
        fill: #231f20;
      }
    </style>
  </defs>
  <g>
    <path class="st0" d="M17.67,26.54v-.3l.45-.12c.4-.12.67-.3.83-.54.15-.24.22-.55.22-.93v-9.39c0-.44-.07-.77-.22-.98s-.42-.35-.83-.44l-.45-.12v-.3l5.16-1.74.3.3.27,2.58v.24c.28-.56.64-1.07,1.09-1.54.45-.47.95-.85,1.5-1.16.55-.3,1.09-.45,1.63-.45.76,0,1.34.21,1.74.63s.6.95.6,1.59c0,.68-.2,1.21-.58,1.58-.39.37-.86.56-1.4.56-.84,0-1.58-.42-2.22-1.26l-.06-.06c-.2-.28-.43-.44-.69-.46-.26-.03-.5.1-.72.38-.2.18-.37.4-.5.65-.13.25-.25.54-.38.85v8.37c0,.8.35,1.3,1.05,1.5l.96.27v.3h-7.77Z"/>
    <path class="st0" d="M37.95,11.66c1.3,0,2.41.27,3.33.79.92.53,1.62,1.25,2.12,2.16.49.91.73,1.95.73,3.1,0,.22,0,.45-.03.67-.02.23-.06.44-.12.62h-8.94c.02,2.16.41,3.72,1.16,4.66.75.95,1.86,1.43,3.34,1.43,1,0,1.81-.16,2.43-.48.62-.32,1.2-.79,1.74-1.41l.3.27c-.62,1.1-1.45,1.96-2.48,2.58s-2.26.93-3.71.93-2.68-.31-3.78-.92c-1.1-.61-1.96-1.49-2.58-2.62-.62-1.14-.93-2.5-.93-4.08s.36-3.03,1.08-4.19c.72-1.15,1.65-2.02,2.78-2.62s2.31-.9,3.55-.9ZM37.86,12.26c-.58,0-1.08.18-1.49.52-.41.35-.73.97-.96,1.86-.23.89-.36,2.15-.38,3.77h5.13c.2-2.18.12-3.75-.24-4.71-.36-.96-1.05-1.44-2.07-1.44Z"/>
    <path class="st0" d="M49.53,16.64c-.72,0-1.33-.25-1.83-.75s-.75-1.1-.75-1.8.25-1.31.75-1.83,1.11-.78,1.83-.78,1.33.26,1.83.78.75,1.13.75,1.83-.25,1.3-.75,1.8-1.11.75-1.83.75ZM49.53,26.99c-.72,0-1.33-.25-1.83-.75-.5-.5-.75-1.1-.75-1.8s.25-1.31.75-1.83c.5-.52,1.11-.78,1.83-.78s1.33.26,1.83.78c.5.52.75,1.13.75,1.83s-.25,1.3-.75,1.8c-.5.5-1.11.75-1.83.75Z"/>
    <path class="st0" d="M60.33,26.99c-1.28,0-2.28-.32-2.98-.96-.71-.64-1.07-1.66-1.07-3.06v-10.26h-2.07v-.3l.72-.12c.62-.14,1.15-.34,1.6-.6.45-.26.89-.61,1.33-1.05l2.46-2.73h.3l-.09,4.2h3.36v.6h-3.39v10.8c0,.7.15,1.23.46,1.59.31.36.71.54,1.18.54.42,0,.79-.1,1.11-.31.32-.21.64-.5.96-.85l.3.3c-.4.68-.95,1.22-1.65,1.62s-1.55.6-2.55.6Z"/>
    <path class="st0" d="M65.46,26.54v-.3l.45-.12c.4-.12.67-.3.83-.54.15-.24.22-.55.22-.93v-9.39c0-.44-.07-.77-.22-.98s-.42-.35-.83-.44l-.45-.12v-.3l5.16-1.74.3.3.27,2.58v.24c.28-.56.64-1.07,1.09-1.54.45-.47.95-.85,1.5-1.16.55-.3,1.09-.45,1.63-.45.76,0,1.34.21,1.74.63s.6.95.6,1.59c0,.68-.2,1.21-.58,1.58-.39.37-.86.56-1.4.56-.84,0-1.58-.42-2.22-1.26l-.06-.06c-.2-.28-.43-.44-.69-.46-.26-.03-.5.1-.72.38-.2.18-.37.4-.5.65-.13.25-.25.54-.38.85v8.37c0,.8.35,1.3,1.05,1.5l.96.27v.3h-7.77Z"/>
    <path class="st0" d="M81.93,33.74c-.8,0-1.44-.2-1.91-.6-.47-.4-.71-.91-.71-1.53,0-.56.2-1.01.6-1.35s.85-.51,1.35-.51.92.11,1.26.31c.34.21.64.52.9.92l.21.24c.44.6.88.59,1.32-.03.18-.3.38-.7.62-1.19.23-.49.5-1.14.79-1.96l-5.82-13.92c-.14-.38-.29-.69-.45-.92-.16-.23-.42-.42-.78-.58l-.54-.21v-.3h7.47v.27l-.6.24c-.44.14-.67.37-.67.67-.01.31.06.7.22,1.16l3.12,8.1,2.97-8.19c.16-.46.22-.84.18-1.15-.04-.31-.29-.52-.75-.65l-.63-.15v-.3h4.17v.3l-.66.21c-.46.14-.78.34-.96.6-.18.26-.35.62-.51,1.08l-4.83,13.17c-.78,2.1-1.56,3.67-2.34,4.71-.78,1.04-1.79,1.56-3.03,1.56Z"/>
  </g>
  <g>
    <path class="st0" d="M-.6-22.43v-.3l.45-.12c.4-.12.67-.3.83-.54.15-.24.22-.55.22-.93v-9.39c0-.44-.07-.77-.22-.98s-.42-.35-.83-.44l-.45-.12v-.3l5.16-1.74.3.3.27,2.58v.24c.28-.56.64-1.07,1.09-1.54.45-.47.95-.85,1.5-1.16.55-.3,1.09-.45,1.63-.45.76,0,1.34.21,1.74.63s.6.95.6,1.59c0,.68-.2,1.21-.58,1.58-.39.37-.86.56-1.4.56-.84,0-1.58-.42-2.22-1.26l-.06-.06c-.2-.28-.43-.44-.69-.46-.26-.03-.5.1-.72.38-.2.18-.37.4-.5.65-.13.25-.25.54-.38.85v8.37c0,.8.35,1.3,1.05,1.5l.96.27v.3H-.6Z"/>
    <path class="st0" d="M19.68-37.31c1.3,0,2.41.27,3.33.79.92.53,1.62,1.25,2.12,2.16.49.91.73,1.95.73,3.1,0,.22,0,.45-.03.67-.02.23-.06.44-.12.62h-8.94c.02,2.16.41,3.72,1.16,4.67.75.95,1.86,1.42,3.34,1.42,1,0,1.81-.16,2.43-.48.62-.32,1.2-.79,1.74-1.41l.3.27c-.62,1.1-1.45,1.96-2.48,2.58-1.03.62-2.26.93-3.71.93s-2.68-.31-3.78-.92c-1.1-.61-1.96-1.49-2.58-2.62-.62-1.14-.93-2.5-.93-4.08s.36-3.04,1.08-4.19c.72-1.15,1.65-2.02,2.78-2.62s2.31-.9,3.55-.9ZM19.59-36.71c-.58,0-1.08.18-1.49.52-.41.35-.73.97-.96,1.86-.23.89-.36,2.15-.38,3.77h5.13c.2-2.18.12-3.75-.24-4.71-.36-.96-1.05-1.44-2.07-1.44Z"/>
    <path class="st0" d="M31.26-32.33c-.72,0-1.33-.25-1.83-.75s-.75-1.1-.75-1.8.25-1.31.75-1.83,1.11-.78,1.83-.78,1.33.26,1.83.78.75,1.13.75,1.83-.25,1.3-.75,1.8-1.11.75-1.83.75ZM31.26-21.98c-.72,0-1.33-.25-1.83-.75-.5-.5-.75-1.1-.75-1.8s.25-1.31.75-1.83c.5-.52,1.11-.78,1.83-.78s1.33.26,1.83.78c.5.52.75,1.13.75,1.83s-.25,1.3-.75,1.8c-.5.5-1.11.75-1.83.75Z"/>
    <path class="st0" d="M36.45-22.43v-.3l.36-.12c.72-.24,1.08-.74,1.08-1.5v-16.05c0-.4-.08-.7-.24-.91-.16-.21-.44-.36-.84-.47l-.39-.09v-.3l5.49-1.29.36.27-.12,4.2v10.26c0,.74,0,1.47.02,2.2,0,.73.01,1.46.01,2.18,0,.4.08.72.24.97s.43.44.81.55l.39.09v.3h-7.17Z"/>
    <path class="st0" d="M52.53-21.98c-1.52,0-2.84-.32-3.96-.95-1.12-.63-1.99-1.53-2.6-2.69-.61-1.16-.92-2.52-.92-4.08s.33-2.91.98-4.05c.65-1.14,1.54-2.02,2.67-2.64,1.13-.62,2.4-.93,3.83-.93s2.69.31,3.81.92c1.12.61,2,1.48,2.66,2.62.65,1.14.97,2.5.97,4.08s-.3,2.94-.92,4.09-1.47,2.04-2.58,2.67c-1.11.63-2.42.95-3.94.95ZM52.53-22.58c.7,0,1.26-.2,1.68-.6s.72-1.11.92-2.13c.19-1.02.29-2.46.29-4.32s-.1-3.33-.29-4.35c-.19-1.02-.5-1.73-.92-2.13-.42-.4-.98-.6-1.68-.6s-1.27.2-1.7.6c-.43.4-.74,1.11-.93,2.13-.19,1.02-.29,2.47-.29,4.35s.09,3.3.29,4.32c.19,1.02.5,1.73.93,2.13.43.4.99.6,1.7.6Z"/>
    <path class="st0" d="M68.91-21.98c-1.36,0-2.59-.3-3.71-.89s-1.99-1.45-2.64-2.58c-.65-1.13-.98-2.51-.98-4.15s.36-3.01,1.07-4.16c.71-1.15,1.66-2.03,2.85-2.64,1.19-.61,2.5-.92,3.92-.92,1.16,0,2.14.19,2.94.57.8.38,1.41.88,1.83,1.48.42.61.63,1.25.63,1.91,0,.56-.17,1-.51,1.31-.34.31-.78.46-1.32.46-.58,0-1.05-.21-1.41-.63-.36-.42-.57-.97-.63-1.65-.02-.44-.01-.81.03-1.12.04-.31.04-.62,0-.94-.08-.34-.21-.56-.38-.67-.17-.11-.41-.17-.71-.17-1.22,0-2.17.53-2.83,1.59-.67,1.06-1,2.75-1,5.07,0,2.02.38,3.57,1.12,4.64s1.9,1.6,3.46,1.6c.94,0,1.7-.17,2.28-.51s1.14-.85,1.68-1.53l.3.24c-.5,1.18-1.27,2.09-2.31,2.73-1.04.64-2.27.96-3.69.96Z"/>
    <path class="st0" d="M80.49-21.98c-1.16,0-2.14-.33-2.93-.99s-1.18-1.61-1.18-2.85c0-.94.48-1.8,1.44-2.59s2.47-1.38,4.53-1.79c.32-.06.68-.12,1.08-.19s.82-.15,1.26-.23v-2.37c0-1.36-.17-2.31-.5-2.86-.33-.55-.84-.83-1.54-.83-.48,0-.86.16-1.14.46-.28.31-.46.85-.54,1.6l-.06.33c-.04.86-.25,1.49-.63,1.89-.38.4-.85.6-1.41.6-.52,0-.95-.16-1.29-.48-.34-.32-.51-.75-.51-1.29,0-.82.29-1.51.86-2.07.57-.56,1.32-.98,2.26-1.26.94-.28,1.96-.42,3.06-.42,1.78,0,3.15.44,4.12,1.3.97.87,1.46,2.29,1.46,4.25v6.63c0,.9.42,1.35,1.26,1.35h.66l.27.24c-.38.48-.79.85-1.25,1.11-.45.26-1.08.39-1.9.39-.88,0-1.58-.21-2.08-.62-.51-.41-.85-.95-1.01-1.63-.6.64-1.21,1.19-1.84,1.63-.63.45-1.45.68-2.44.68ZM82.32-23.81c.4,0,.78-.09,1.12-.29.35-.19.77-.49,1.25-.88v-5.04c-.2.04-.4.08-.6.12-.2.04-.43.08-.69.12-.92.24-1.66.65-2.21,1.22-.55.57-.82,1.33-.82,2.29,0,.82.19,1.43.57,1.84s.84.62,1.38.62Z"/>
    <path class="st0" d="M97.35-21.98c-1.28,0-2.28-.32-2.98-.96-.71-.64-1.07-1.66-1.07-3.06v-10.26h-2.07v-.3l.72-.12c.62-.14,1.15-.34,1.6-.6.45-.26.89-.61,1.33-1.05l2.46-2.73h.3l-.09,4.2h3.36v.6h-3.39v10.8c0,.7.15,1.23.46,1.59.31.36.71.54,1.18.54.42,0,.79-.1,1.11-.31.32-.21.64-.5.96-.86l.3.3c-.4.68-.95,1.22-1.65,1.62-.7.4-1.55.6-2.55.6Z"/>
    <path class="st0" d="M109.92-37.31c1.3,0,2.41.27,3.33.79.92.53,1.62,1.25,2.12,2.16.49.91.73,1.95.73,3.1,0,.22,0,.45-.03.67-.02.23-.06.44-.12.62h-8.94c.02,2.16.41,3.72,1.16,4.67.75.95,1.86,1.42,3.34,1.42,1,0,1.81-.16,2.43-.48.62-.32,1.2-.79,1.74-1.41l.3.27c-.62,1.1-1.45,1.96-2.48,2.58-1.03.62-2.26.93-3.71.93s-2.68-.31-3.78-.92c-1.1-.61-1.96-1.49-2.58-2.62-.62-1.14-.93-2.5-.93-4.08s.36-3.04,1.08-4.19c.72-1.15,1.65-2.02,2.78-2.62s2.31-.9,3.55-.9ZM109.83-36.71c-.58,0-1.08.18-1.49.52-.41.35-.73.97-.96,1.86-.23.89-.36,2.15-.38,3.77h5.13c.2-2.18.12-3.75-.24-4.71-.36-.96-1.05-1.44-2.07-1.44Z"/>
  </g>
  <g>
    <path class="st0" d="M137.09,26.54v-.3l.45-.12c.4-.12.67-.3.83-.54.15-.24.22-.55.22-.93v-9.39c0-.44-.07-.76-.22-.97s-.42-.36-.83-.44l-.45-.12v-.3l5.16-1.74.3.3.27,2.58v.24c.28-.56.64-1.07,1.09-1.54.45-.47.95-.85,1.5-1.16.55-.3,1.09-.45,1.63-.45.76,0,1.34.21,1.74.63s.6.95.6,1.59c0,.68-.2,1.21-.58,1.58-.39.37-.86.55-1.4.55-.84,0-1.58-.42-2.22-1.26l-.06-.06c-.2-.28-.43-.43-.69-.46-.26-.03-.5.1-.72.38-.2.18-.37.4-.5.65-.13.25-.25.54-.38.85v8.37c0,.8.35,1.3,1.05,1.5l.96.27v.3h-7.77Z"/>
    <path class="st0" d="M157.37,11.66c1.3,0,2.41.26,3.33.79s1.62,1.25,2.12,2.16c.49.91.73,1.95.73,3.1,0,.22,0,.45-.03.67-.02.23-.06.44-.12.62h-8.94c.02,2.16.41,3.72,1.16,4.67.75.95,1.86,1.42,3.34,1.42,1,0,1.81-.16,2.43-.48.62-.32,1.2-.79,1.74-1.41l.3.27c-.62,1.1-1.45,1.96-2.48,2.58-1.03.62-2.26.93-3.71.93s-2.68-.31-3.78-.92c-1.1-.61-1.96-1.49-2.58-2.62-.62-1.14-.93-2.5-.93-4.08s.36-3.04,1.08-4.19c.72-1.15,1.65-2.02,2.78-2.62,1.13-.6,2.31-.9,3.55-.9ZM157.28,12.26c-.58,0-1.08.18-1.49.53s-.73.97-.96,1.86c-.23.89-.36,2.15-.38,3.77h5.13c.2-2.18.12-3.75-.24-4.71-.36-.96-1.05-1.44-2.07-1.44Z"/>
    <path class="st0" d="M168.95,16.64c-.72,0-1.33-.25-1.83-.75s-.75-1.1-.75-1.8.25-1.31.75-1.83c.5-.52,1.11-.78,1.83-.78s1.33.26,1.83.78c.5.52.75,1.13.75,1.83s-.25,1.3-.75,1.8-1.11.75-1.83.75ZM168.95,26.99c-.72,0-1.33-.25-1.83-.75-.5-.5-.75-1.1-.75-1.8s.25-1.31.75-1.83c.5-.52,1.11-.78,1.83-.78s1.33.26,1.83.78c.5.52.75,1.13.75,1.83s-.25,1.3-.75,1.8c-.5.5-1.11.75-1.83.75Z"/>
    <path class="st0" d="M179.24,26.99c-.98,0-1.86-.12-2.64-.35-.78-.23-1.5-.51-2.16-.85l.03-3.57h.3l1.02,1.8c.44.8.92,1.4,1.46,1.79.53.39,1.21.58,2.03.58.96,0,1.73-.21,2.32-.64s.89-1,.89-1.73c0-.66-.21-1.2-.63-1.62s-1.2-.8-2.34-1.14l-1.26-.39c-1.22-.36-2.18-.92-2.88-1.68-.7-.76-1.05-1.69-1.05-2.79,0-1.32.52-2.44,1.56-3.36s2.53-1.38,4.47-1.38c.78,0,1.51.08,2.21.25.69.17,1.35.42,1.99.76l-.18,3.24h-.3l-1.05-1.86c-.38-.66-.76-1.12-1.12-1.39-.37-.27-.93-.41-1.67-.41-.68,0-1.32.19-1.92.57-.6.38-.9.92-.9,1.62s.25,1.22.76,1.62c.51.4,1.26.77,2.27,1.11l1.35.39c1.44.44,2.47,1.05,3.09,1.82.62.77.93,1.7.93,2.78,0,1.46-.58,2.63-1.73,3.51s-2.76,1.32-4.84,1.32Z"/>
    <path class="st0" d="M192.83,26.99c-1.28,0-2.28-.32-2.98-.96-.71-.64-1.07-1.66-1.07-3.06v-10.26h-2.07v-.3l.72-.12c.62-.14,1.15-.34,1.6-.6.45-.26.89-.61,1.33-1.05l2.46-2.73h.3l-.09,4.2h3.36v.6h-3.39v10.8c0,.7.15,1.23.46,1.59.31.36.71.54,1.18.54.42,0,.79-.1,1.11-.31.32-.21.64-.5.96-.86l.3.3c-.4.68-.95,1.22-1.65,1.62-.7.4-1.55.6-2.55.6Z"/>
    <path class="st0" d="M202.35,26.99c-1.16,0-2.14-.33-2.93-.99s-1.18-1.61-1.18-2.85c0-.94.48-1.8,1.44-2.59s2.47-1.38,4.53-1.79c.32-.06.68-.12,1.08-.19s.82-.15,1.26-.23v-2.37c0-1.36-.17-2.31-.5-2.86-.33-.55-.84-.83-1.54-.83-.48,0-.86.16-1.14.46-.28.31-.46.84-.54,1.6l-.06.33c-.04.86-.25,1.49-.63,1.89s-.85.6-1.41.6c-.52,0-.95-.16-1.29-.48-.34-.32-.51-.75-.51-1.29,0-.82.29-1.51.86-2.07.57-.56,1.32-.98,2.26-1.26s1.96-.42,3.06-.42c1.78,0,3.15.43,4.12,1.3.97.87,1.46,2.29,1.46,4.25v6.63c0,.9.42,1.35,1.26,1.35h.66l.27.24c-.38.48-.79.85-1.25,1.11-.45.26-1.08.39-1.9.39-.88,0-1.58-.21-2.08-.62-.51-.41-.85-.95-1.01-1.63-.6.64-1.21,1.19-1.84,1.63-.63.45-1.45.68-2.44.68ZM204.17,25.16c.4,0,.78-.09,1.12-.29.35-.19.77-.49,1.25-.88v-5.04c-.2.04-.4.08-.6.12-.2.04-.43.08-.69.12-.92.24-1.66.65-2.21,1.22-.55.57-.82,1.33-.82,2.29,0,.82.19,1.43.57,1.84s.84.62,1.38.62Z"/>
    <path class="st0" d="M213.44,26.54v-.3l.45-.12c.4-.12.67-.3.83-.54.15-.24.22-.55.22-.93v-9.39c0-.44-.07-.76-.22-.97s-.42-.36-.83-.44l-.45-.12v-.3l5.16-1.74.3.3.27,2.58v.24c.28-.56.64-1.07,1.09-1.54.45-.47.95-.85,1.5-1.16.55-.3,1.09-.45,1.63-.45.76,0,1.34.21,1.74.63s.6.95.6,1.59c0,.68-.2,1.21-.58,1.58-.39.37-.86.55-1.4.55-.84,0-1.58-.42-2.22-1.26l-.06-.06c-.2-.28-.43-.43-.69-.46-.26-.03-.5.1-.72.38-.2.18-.37.4-.5.65-.13.25-.25.54-.38.85v8.37c0,.8.35,1.3,1.05,1.5l.96.27v.3h-7.77Z"/>
    <path class="st0" d="M232.64,26.99c-1.28,0-2.28-.32-2.98-.96-.71-.64-1.07-1.66-1.07-3.06v-10.26h-2.07v-.3l.72-.12c.62-.14,1.15-.34,1.6-.6.45-.26.89-.61,1.33-1.05l2.46-2.73h.3l-.09,4.2h3.36v.6h-3.39v10.8c0,.7.15,1.23.46,1.59.31.36.71.54,1.18.54.42,0,.79-.1,1.11-.31.32-.21.64-.5.96-.86l.3.3c-.4.68-.95,1.22-1.65,1.62-.7.4-1.55.6-2.55.6Z"/>
  </g>
</svg>