<svg xmlns="http://www.w3.org/2000/svg" version="1.1" viewBox="0 0 24 24" fill="rgba(0, 0, 0, 0.87)">
  <path d="M0,17.09v-.21l.31-.08c.28-.08.47-.21.57-.38.1-.17.16-.38.16-.65v-6.54c0-.31-.05-.53-.16-.68-.1-.15-.3-.25-.57-.3l-.31-.08v-.21l3.6-1.21.21.21.19,1.8v.17c.19-.39.45-.75.76-1.08.31-.33.66-.6,1.05-.8.38-.21.76-.31,1.14-.31.53,0,.93.15,1.21.44.28.29.42.66.42,1.11,0,.47-.14.84-.41,1.1-.27.26-.6.39-.97.39-.59,0-1.1-.29-1.55-.88l-.04-.04c-.14-.2-.3-.3-.48-.32-.18-.02-.35.07-.5.26-.14.13-.25.28-.35.45-.09.17-.18.37-.26.6v5.83c0,.56.24.91.73,1.05l.67.19v.21H0Z"/>
  <path d="M14.13,6.72c.91,0,1.68.18,2.32.55.64.37,1.13.87,1.47,1.51.34.63.51,1.36.51,2.16,0,.15,0,.31-.02.47-.01.16-.04.3-.08.43h-6.23c.01,1.51.28,2.59.8,3.25s1.3.99,2.33.99c.7,0,1.26-.11,1.69-.33.43-.22.84-.55,1.21-.98l.21.19c-.43.77-1.01,1.37-1.72,1.8-.72.43-1.58.65-2.58.65s-1.87-.21-2.63-.64c-.77-.42-1.37-1.03-1.8-1.83-.43-.79-.65-1.74-.65-2.84s.25-2.11.75-2.92c.5-.8,1.15-1.41,1.93-1.83.79-.42,1.61-.63,2.48-.63ZM14.07,7.14c-.4,0-.75.12-1.03.37-.29.24-.51.68-.67,1.3s-.25,1.49-.26,2.62h3.57c.14-1.52.08-2.61-.17-3.28-.25-.67-.73-1-1.44-1Z"/>
  <path d="M22.2,10.19c-.5,0-.93-.17-1.28-.52s-.52-.77-.52-1.25.17-.91.52-1.28c.35-.36.77-.54,1.28-.54s.93.18,1.28.54c.35.36.52.79.52,1.28s-.17.91-.52,1.25-.77.52-1.28.52ZM22.2,17.4c-.5,0-.93-.17-1.28-.52-.35-.35-.52-.77-.52-1.25s.17-.91.52-1.28c.35-.36.77-.54,1.28-.54s.93.18,1.28.54c.35.36.52.79.52,1.28s-.17.91-.52,1.25c-.35.35-.77.52-1.28.52Z"/>
</svg>